<svg width="22" height="27" viewBox="0 0 22 27" fill="none" xmlns="http://www.w3.org/2000/svg">
<path d="M20.8084 6.86489L20.8084 6.86469C20.7795 6.38098 20.4052 5.98991 19.9346 5.98991H16.0899V4.85184C16.0899 2.24439 13.7969 0.139404 11 0.139404C8.20316 0.139404 5.91017 2.24439 5.91017 4.85184V5.98991H2.06544C1.59484 5.98991 1.22047 6.38098 1.19164 6.86469L1.19163 6.86489L0.126196 25.2452L0.126189 25.2453C0.1117 25.4997 0.195138 25.7497 0.358767 25.938L0.35903 25.9383C0.523186 26.1261 0.755157 26.2356 1.00001 26.2356H21C21.2449 26.2356 21.4768 26.1261 21.641 25.9383L21.6413 25.938C21.8049 25.7497 21.8883 25.4997 21.8738 25.2453L21.8738 25.2452L20.8084 6.86489ZM7.66017 4.85184C7.66017 3.29966 9.14021 2.00479 11 2.00479C12.8598 2.00479 14.3399 3.29966 14.3399 4.85184V5.98991H7.66017V4.85184ZM6.03517 7.8553H6.04327H6.05134H6.05937H6.06736H6.07531H6.08323H6.0911H6.09894H6.10674H6.1145H6.12223H6.12992H6.13757H6.14518H6.15276H6.1603H6.1678H6.17527H6.1827H6.19009H6.19745H6.20476H6.21205H6.2193H6.22651H6.23368H6.24082H6.24793H6.25499H6.26203H6.26902H6.27599H6.28291H6.2898H6.29666H6.30348H6.31027H6.31702H6.32374H6.33042H6.33707H6.34369H6.35027H6.35681H6.36333H6.36981H6.37625H6.38266H6.38904H6.39539H6.4017H6.40798H6.41422H6.42043H6.42661H6.43276H6.43888H6.44496H6.45101H6.45702H6.46301H6.46896H6.47488H6.48077H6.48663H6.49246H6.49825H6.50401H6.50974H6.51545H6.52111H6.52675H6.53236H6.53794H6.54348H6.549H6.55448H6.55994H6.56536H6.57076H6.57612H6.58145H6.58676H6.59203H6.59728H6.60249H6.60768H6.61284H6.61796H6.62306H6.62813H6.63317H6.63818H6.64317H6.64812H6.65305H6.65795H6.66282H6.66766H6.67247H6.67726H6.68202H6.68675H6.69145H6.69613H6.70077H6.70539H6.70999H6.71455H6.71909H6.72361H6.72809H6.73255H6.73699H6.74139H6.74577H6.75013H6.75446H6.75876H6.76304H6.76729H6.77151H6.77571H6.77989H6.78403H6.78816H6.79226H6.79633H6.80038H6.8044H6.8084H6.81238H6.81633H6.82025H6.82416H6.82803H6.83189H6.83572H6.83952H6.84331H6.84706H6.8508H6.85451H6.8582H6.86186H6.86551H6.86913H6.87272H6.8763H6.87985H6.88338H6.88688H6.89037H6.89383H6.89727H6.90069H6.90408H6.90746H6.91081H6.91414H6.91745H6.92074H6.924H6.92725H6.93047H6.93368H6.93686H6.94002H6.94316H6.94629H6.94939H6.95247H6.95553H6.95857H6.96159H6.96459H6.96757H6.97053H6.97347H6.9764H6.9793H6.98218H6.98505H6.98789H6.99072H6.99353H6.99632H6.99909H7.00184H7.00458H7.00729H7.00999H7.01267H7.01533H7.01798H7.02061H7.02321H7.02581H7.02838H7.03094H7.03348H7.036H7.03851H7.04099H7.04347H7.04592H7.04836H7.05079H7.05319H7.05558H7.05796H7.06031H7.06266H7.06498H7.0673H7.06959H7.07187H7.07414H7.07639H7.07862H7.08084H7.08304H7.08523H7.08741H7.08957H7.09172H7.09385H7.09596H7.09807H7.10016H7.10223H7.10429H7.10634H7.10838H7.1104H7.11241H7.1144H7.11638H7.11835H7.1203H7.12225H7.12417H7.12609H7.128H7.12989H7.13177H7.13363H7.13549H7.13733H7.13916H7.14098H7.14279H7.14459H7.14637H7.14815H7.14991H7.15166H7.1534H7.15513H7.15685H7.15855H7.16025H7.16194H7.16361H7.16528H7.16694H7.16858H7.17022H7.17184H7.17346H7.17507H7.17666H7.17825H7.17983H7.1814H7.18296H7.18451H7.18605H7.18759H7.18911H7.19063H7.19213H7.19363H7.19512H7.19661H7.19808H7.19955H7.20101H7.20246H7.20391H7.20534H7.20677H7.20819H7.20961H7.21102H7.21242H7.21381H7.2152H7.21658H7.21795H7.21932H7.22068H7.22204H7.22339H7.22473H7.22607H7.2274H7.22872H7.23004H7.23136H7.23267H7.23397H7.23527H7.23657H7.23785H7.23914H7.24042H7.24169H7.24297H7.24423H7.24549H7.24675H7.24801H7.24926H7.2505H7.25174H7.25298H7.25422H7.25545H7.25668H7.2579H7.25913H7.26035H7.26156H7.26278H7.26399H7.2652H7.2664H7.26761H7.26881H7.27001H7.2712H7.2724H7.27359H7.27479H7.27598H7.27717H7.27835H7.27954H7.28073H7.28191H7.28309H7.28428H7.28546H7.28664H7.28782H7.289H7.29018H7.29136H7.29254H7.29372H7.2949H7.29608H7.29726H7.29844H7.29962H7.30081H7.30199H7.30317H7.30436H7.30554H7.30673H7.30792H7.30911H7.3103H7.3115H7.31269H7.31389H7.31509H7.31629H7.31749H7.3187H7.3199H7.32111H7.32233H7.32354H7.32476H7.32598H7.32721H7.32843H7.32967H7.3309H7.33214H7.33338H7.33462H7.33587H7.33713H7.33838H7.33964H7.34091H7.34218H7.34345H7.34473H7.34601H7.3473H7.34859H7.34989H7.35119H7.3525H7.35382H7.35513H7.35646H7.35779H7.35912H7.36047H7.36181H7.36317H7.36453H7.36589H7.36726H7.36864H7.37003H7.37142H7.37282H7.37422H7.37564H7.37706H7.37848H7.37992H7.38136H7.38281H7.38427H7.38573H7.3872H7.38868H7.39017H7.39167H7.39318H7.39469H7.39621H7.39774H7.39928H7.40083H7.40239H7.40395H7.40553H7.40711H7.40871H7.41031H7.41193H7.41355H7.41518H7.41682H7.41848H7.42014H7.42181H7.4235H7.42519H7.42689H7.42861H7.43034H7.43207H7.43382H7.43558H7.43735H7.43913H7.44092H7.44273H7.44454H7.44637H7.44821H7.45006H7.45193H7.4538H7.45569H7.45759H7.4595H7.46143H7.46337H7.46532H7.46728H7.46926H7.47125H7.47325H7.47527H7.4773H7.47935H7.4814H7.48347H7.48556H7.48766H7.48977H7.4919H7.49404H7.4962H7.49837H7.50055H7.50275H7.50497H7.5072H7.50944H7.5117H7.51398H7.51627H7.51858H7.5209H7.52324H7.52559H7.52796H7.53035H7.53275H7.53517H7.53759H7.54003H7.54135H7.54247H7.54491H7.54736H7.54749H7.54981H7.55227H7.5536H7.55474H7.5572H7.55968H7.56215H7.56463H7.56569H7.56712H7.56961H7.57168H7.5721H7.5746H7.5771H7.57763H7.57961H7.58212H7.58355H7.58463H7.58714H7.58942H7.58966H7.59219H7.59471H7.59526H7.59724H7.59978H7.60106H7.60231H7.60485H7.60682H7.60739H7.60993H7.61248H7.61254H7.61503H7.61758H7.61822H7.62014H7.62269H7.62387H7.62525H7.62781H7.62948H7.63038H7.63294H7.63505H7.63551H7.63808H7.64058H7.64065H7.64322H7.64579H7.64608H7.64837H7.65095H7.65154H7.65352H7.6561H7.65696H7.65868H7.66127H7.66234H7.66385H7.66643H7.66769H7.66902H7.6716H7.673H7.67419H7.67677H7.67828H7.67936H7.68194H7.68351H7.68453H7.68712H7.68871H7.6897H7.69229H7.69388H7.69488H7.69747H7.699H7.70005H7.70264H7.70409H7.70522H7.70781H7.70915H7.71039H7.71298H7.71416H7.71556H7.71814H7.71915H7.72073H7.72331H7.72409H7.72588H7.72846H7.729H7.73104H7.73361H7.73387H7.73619H7.73876H7.74133H7.74351H7.7439H7.74647H7.74828H7.74903H7.7516H7.75301H7.75416H7.75672H7.7577H7.75927H7.76183H7.76236H7.76438H7.76693H7.76699H7.76948H7.77158H7.77202H7.77456H7.77613H7.7771H7.77964H7.78065H7.78217H7.7847H7.78513H7.78723H7.78958H7.78975H7.79227H7.79399H7.79478H7.7973H7.79837H7.79981H7.80231H7.80272H7.80481H7.80703H7.80731H7.8098H7.8113H7.81229H7.81478H7.81554H7.81726H7.81974H7.82221H7.82392H7.82468H7.82714H7.82806H7.8296H7.83206H7.83216H7.8345H7.83623H7.83695H7.83939H7.84027H7.84182H7.84425H7.84667H7.84824H7.84909H7.85151H7.85218H7.85391H7.85608H7.85632H7.85871H7.85995H7.8611H7.86349H7.86378H7.86586H7.86758H7.86824H7.8706H7.87135H7.87296H7.87509H7.87532H7.87767H7.87879H7.88001H7.88234H7.88246H7.88467H7.88609H7.88699H7.8893H7.8897H7.89161H7.89327H7.89391H7.8962H7.89681H7.89849H7.90031H7.90077H7.90304H7.90379H7.9053H7.90723H7.90756H7.90981H7.91064H7.91205H7.91401H7.91428H7.91651H7.91736H7.91873H7.92067H7.92094H7.92314H7.92395H7.92533H7.9272H7.92751H7.92969H7.93042H7.93186H7.9336H7.93402H7.93617H7.93676H7.93831H7.93988H7.94044H7.94257H7.94297H7.94468H7.94603H7.94679H7.94889H7.94906H7.95098H7.95206H7.95305H7.95503H7.95512H7.95718H7.95796H7.95923H7.96087H7.96127H7.9633H7.96374H7.96532H7.96658H7.96734H7.96934H7.9694H7.97133H7.97218H7.97331H7.97493H7.97528H7.97724H7.97765H7.97919H7.98034H7.98113H7.98305H7.98497H7.98564H7.98688H7.98824H7.98877H7.99066H7.99081H7.99253H7.99335H7.99439H7.99586H7.99625H7.99809H7.99834H7.99991H8.0008H8.00173H8.00322H8.00354H8.00533H8.00561H8.00711H8.00798H8.00888H8.01031H8.01064H8.01239H8.01262H8.01412H8.01489H8.01584H8.01714H8.01755H8.01925H8.01936H8.02094H8.02155H8.02261H8.02371H8.02427H8.02585H8.02592H8.02755H8.02795H8.02917H8.03003H8.03078H8.03207H8.03238H8.03396H8.03409H8.03553H8.03609H8.03708H8.03805H8.03863H8.03998H8.04015H8.04167H8.04189H8.04317H8.04377H8.04466H8.04562H8.04613H8.04745H8.04759H8.04904H8.04924H8.05047H8.05101H8.05189H8.05275H8.05329H8.05447H8.05468H8.05606H8.05615H8.05742H8.05781H8.05876H8.05945H8.06009H8.06105H8.06141H8.06263H8.06271H8.064H8.06418H8.06527H8.06571H8.06653H8.06721H8.06777H8.06868H8.06899H8.07013H8.0702H8.0714H8.07155H8.07258H8.07294H8.07374H8.07431H8.07489H8.07565H8.07602H8.07696H8.07714H8.07824H8.07932H8.07951H8.08039H8.08075H8.08144H8.08196H8.08248H8.08315H8.0835H8.08431H8.0845H8.08549H8.08646H8.08655H8.08741H8.08764H8.08834H8.0887H8.08926H8.08973H8.09016H8.09074H8.09105H8.09173H8.09192H8.09269H8.09277H8.0936H8.09441H8.09453H8.09521H8.09542H8.09599H8.09628H8.09675H8.09712H8.0975H8.09793H8.09823H8.09872H8.09893H8.09948H8.09963H8.10022H8.1003H8.10095H8.10159H8.10221H8.1023H8.1028H8.10295H8.10338H8.10357H8.10395H8.10417H8.10449H8.10474H8.10501H8.10529H8.10552H8.10582H8.10601H8.10632H8.10647H8.10681H8.10692H8.10727H8.10735H8.1077H8.10776H8.10815H8.10852H8.10887H8.1092H8.10951H8.1098H8.11007H8.11033H8.11056H8.11077H8.11096H8.11113H8.11128H8.11141H8.11152H8.11161H8.11167H8.11173H14.4639C15.1761 7.86595 15.4256 7.86194 15.6452 7.8584C15.7445 7.8568 15.8377 7.8553 15.9649 7.8553H15.9664H15.9673H15.968H15.9696H15.9697H15.9711H15.9721H15.9727H15.9743H15.9745H15.9758H15.9768H15.9774H15.9789H15.9792H15.9805H15.9815H15.982H15.9836H15.9839H15.9851H15.9862H15.9867H15.9882H15.9885H15.9897H15.9908H15.9913H15.9928H15.9931H15.9943H15.9953H15.9958H15.9974H15.9976H15.9989H15.9998H16.0004H16.0019H16.002H16.0034H16.0043H16.0049H16.0064H16.0065H16.0079H16.0087H16.0094H16.0108H16.0123H16.013H16.0138H16.0152H16.0153H16.0168H16.0173H16.0182H16.0194H16.0197H16.0212H16.0216H16.0226H16.0237H16.0241H16.0255H16.0258H16.027H16.0278H16.0284H16.0299H16.0299H16.0313H16.032H16.0327H16.034H16.0342H16.0356H16.036H16.037H16.0381H16.0384H16.0398H16.0401H16.0412H16.0421H16.0427H16.0441H16.0455H16.046H16.0468H16.048H16.0482H16.0496H16.0499H16.051H16.0519H16.0524H16.0538H16.0538H16.0551H16.0557H16.0565H16.0576H16.0579H16.0592H16.0595H16.0606H16.0614H16.0619H16.0632H16.0633H16.0646H16.0651H16.0659H16.0669H16.0673H16.0686H16.0688H16.0699H16.0706H16.0713H16.0724H16.0726H16.0739H16.0742H16.0752H16.076H16.0765H16.0777H16.0778H16.0791H16.0795H16.0804H16.0812H16.0817H16.083H16.0842H16.0847H16.0855H16.0864H16.0868H16.088H16.0881H16.0893H16.0898H16.0905H16.0915H16.0918H16.093H16.0931H16.0943H16.0948H16.0955H16.0964H16.0968H16.098H16.0981H16.0992H16.0997H16.1004H16.1013H16.1016H16.1028H16.1029H16.104H16.1045H16.1052H16.106H16.1064H16.1076H16.1088H16.1092H16.11H16.1107H16.1112H16.1122H16.1123H16.1135H16.1137H16.1147H16.1152H16.1158H16.1167H16.117H16.1181H16.1182H16.1192H16.1197H16.1204H16.1211H16.1215H16.1226H16.1226H16.1238H16.124H16.1249H16.1255H16.126H16.1269H16.1271H16.1282H16.1283H16.1293H16.1297H16.1304H16.1311H16.1314H16.1324H16.1325H16.1336H16.1338H16.1347H16.1351H16.1357H16.1365H16.1368H16.1378H16.1378H16.1389H16.1391H16.1399H16.1404H16.141H16.1417H16.142H16.143H16.144H16.1443H16.145H16.1455H16.1461H16.1468H16.1471H16.148H16.1481H16.149H16.1492H16.15H16.1505H16.151H16.1517H16.152H16.1529H16.153H16.1539H16.154H16.1549H16.1552H16.1558H16.1564H16.1568H16.1575H16.1577H16.1587H16.1587H16.1596H16.1598H16.1605H16.1609H16.1614H16.162H16.1623H16.1631H16.1632H16.1641H16.1642H16.165H16.1653H16.1659H16.1664H16.1668H16.1674H16.1677H16.1685H16.1686H16.1694H16.1695H16.1703H16.1705H16.1711H16.1716H16.172H16.1726H16.1728H16.1736H16.1736H16.1745H16.1745H16.1753H16.1755H16.1761H16.1765H16.1769H16.1774H16.1777H16.1784H16.1785H16.1793H16.1801H16.1802H16.1809H16.1811H16.1817H16.1821H16.1824H16.1829H16.1832H16.1838H16.1839H16.1847H16.1854H16.1856H16.1862H16.1864H16.1869H16.1873H16.1876H16.1881H16.1883H16.1889H16.189H16.1897H16.1904H16.1905H16.1911H16.1913H16.1918H16.1921H16.1925H16.1929H16.1931H16.1936H16.1938H16.1944H16.1945H16.1951H16.1958H16.1958H16.1964H16.1966H16.197H16.1973H16.1976H16.198H16.1983H16.1987H16.1989H16.1994H16.1995H16.2H16.2001H16.2007H16.2007H16.2012H16.2013H16.2018H16.202H16.2024H16.2026H16.2029H16.2032H16.2035H16.2039H16.204H16.2045H16.2046H16.2051H16.2051H16.2056H16.2062H16.2062H16.2067H16.2068H16.2072H16.2073H16.2077H16.2079H16.2082H16.2084H16.2087H16.209H16.2091H16.2095H16.2096H16.21H16.2101H16.2105H16.2105H16.211H16.2114H16.2114H16.2118H16.2119H16.2123H16.2124H16.2127H16.2128H16.2131H16.2133H16.2135H16.2137H16.2139H16.2141H16.2143H16.2146H16.2147H16.215H16.2151H16.2154H16.2154H16.2157H16.2158H16.2161H16.2165H16.2168H16.2169H16.2172H16.2172H16.2175H16.2175H16.2178H16.2179H16.2181H16.2182H16.2184H16.2185H16.2187H16.2188H16.219H16.2191H16.2193H16.2194H16.2195H16.2197H16.2198H16.22H16.22H16.2202H16.2203H16.2205H16.2205H16.2207H16.2208H16.221H16.221H16.2212H16.2214H16.2216H16.2218H16.222H16.2222H16.2223H16.2225H16.2226H16.2227H16.2228H16.2228H16.2229H16.223H16.223H16.2231H16.2232H16.2232H16.2233H16.2233H16.2234H16.2234H16.2235H16.2235H16.2236H16.2236H16.2237H16.2237H16.2237H16.2238H16.2239H16.2239H16.2239H16.224H19.1115L19.7546 18.938L20.0697 24.3702H1.93032L2.88848 7.8553H6.03517Z" fill="white" stroke="white" stroke-width="0.25"/>
</svg>
